<svg width="21" height="80" viewBox="0 0 21 80" fill="none" xmlns="http://www.w3.org/2000/svg">
<path d="M5.61368 78.0864C5.9303 78.8519 6.80757 79.2158 7.5731 78.8992L20.0481 73.7394C20.8137 73.4228 21.1776 72.5455 20.861 71.78C20.5443 71.0145 19.6671 70.6506 18.9015 70.9672L7.8126 75.5537L3.22615 64.4647C2.90952 63.6992 2.03225 63.3353 1.26672 63.6519C0.501191 63.9685 0.137283 64.8458 0.453912 65.6113L5.61368 78.0864ZM7.62439 1.61176C14.6258 17.6942 16.9697 29.5168 16.1895 40.7426C15.4061 52.0141 11.469 62.8246 5.61427 76.9383L8.38531 78.0878C14.2367 63.982 18.3613 52.7636 19.1823 40.9506C20.0065 29.0918 17.4973 16.7742 10.375 0.41428L7.62439 1.61176Z" fill="#656565"/>
</svg>
