<svg width="16" height="29" viewBox="0 0 16 29" fill="none" xmlns="http://www.w3.org/2000/svg">
<path fill-rule="evenodd" clip-rule="evenodd" d="M0 14.405C0 14.9596 0.2496 15.4105 0.5584 15.4105H2.072C2.20218 17.8955 2.80973 20.2208 3.78992 21.9858C4.77011 23.7507 6.06153 24.8447 7.4416 25.0791V27.8045C7.4416 28.0712 7.50043 28.3269 7.60515 28.5155C7.70987 28.7041 7.8519 28.81 8 28.81C8.1481 28.81 8.29013 28.7041 8.39485 28.5155C8.49957 28.3269 8.5584 28.0712 8.5584 27.8045V25.0791C9.93847 24.8447 11.2299 23.7507 12.2101 21.9858C13.1903 20.2208 13.7978 17.8955 13.928 15.4105H15.4416C15.5897 15.4105 15.7317 15.3045 15.8364 15.116C15.9412 14.9274 16 14.6717 16 14.405C16 14.1383 15.9412 13.8826 15.8364 13.694C15.7317 13.5055 15.5897 13.3995 15.4416 13.3995H13.928C13.7978 10.9145 13.1903 8.58917 12.2101 6.82422C11.2299 5.05927 9.93847 3.96531 8.5584 3.7309V1.00547C8.5584 0.738802 8.49957 0.483057 8.39485 0.294495C8.29013 0.105933 8.1481 0 8 0C7.8519 0 7.70987 0.105933 7.60515 0.294495C7.50043 0.483057 7.4416 0.738802 7.4416 1.00547V3.7309C6.06153 3.96531 4.77011 5.05927 3.78992 6.82422C2.80973 8.58917 2.20218 10.9145 2.072 13.3995H0.5584C0.410303 13.3995 0.268272 13.5055 0.163552 13.694C0.0588312 13.8826 0 14.1383 0 14.405ZM5.2096 14.405C5.2096 13.0724 5.50359 11.7944 6.02689 10.8522C6.55019 9.9099 7.25994 9.38054 8 9.38054C8.74006 9.38054 9.44981 9.9099 9.97311 10.8522C10.4964 11.7944 10.7904 13.0724 10.7904 14.405C10.7904 15.7376 10.4964 17.0156 9.97311 17.9578C9.44981 18.9001 8.74006 19.4295 8 19.4295C7.25994 19.4295 6.55019 18.9001 6.02689 17.9578C5.50359 17.0156 5.2096 15.7376 5.2096 14.405Z" fill="#D41010"/>
<path d="M6.32617 14.405C6.32617 13.6054 6.50258 12.8385 6.81659 12.2731C7.1306 11.7077 7.55649 11.39 8.00057 11.39C8.44465 11.39 8.87054 11.7077 9.18455 12.2731C9.49856 12.8385 9.67497 13.6054 9.67497 14.405C9.67497 15.2046 9.49856 15.9715 9.18455 16.5369C8.87054 17.1023 8.44465 17.4199 8.00057 17.4199C7.55649 17.4199 7.1306 17.1023 6.81659 16.5369C6.50258 15.9715 6.32617 15.2046 6.32617 14.405Z" fill="#D41010"/>
</svg>
