<svg width="23" height="25" viewBox="0 0 23 25" fill="none" xmlns="http://www.w3.org/2000/svg">
<path d="M15.1959 16.3568L15.3438 16.5131H15.559H16.3872L21.8714 22.5499L21.8722 22.5507C22.2426 22.9566 22.2426 23.6395 21.8722 24.0453C21.5258 24.4249 20.9777 24.4249 20.6313 24.0453L15.1157 18.0025V17.0465V16.8578L14.9911 16.7161L14.6324 16.3086L14.2905 15.9201L13.914 16.2752C13.0036 17.1337 11.9346 17.7582 10.7846 18.1074C9.63484 18.4565 8.42995 18.5227 7.25508 18.3018L7.25375 18.3015C3.80248 17.6622 0.995674 14.4847 0.565301 10.6016L0.565039 10.5993C0.407545 9.23537 0.53706 7.85044 0.942939 6.55125C1.34881 5.2521 2.01945 4.07556 2.90051 3.11027C3.78141 2.14515 4.84877 1.41723 6.01905 0.978374C7.18906 0.539618 8.43346 0.400398 9.65809 0.570145L9.6608 0.570506C13.1337 1.03253 16.0642 4.06852 16.6591 7.92372L16.6592 7.92485C16.8641 9.23274 16.8026 10.5741 16.4792 11.8522C16.1559 13.1303 15.5795 14.3111 14.7938 15.3112L14.5273 15.6504L14.8239 15.9638L15.1959 16.3568ZM2.15897 9.46312C2.15897 13.3196 5.01118 16.5131 8.63735 16.5131C12.2635 16.5131 15.1157 13.3196 15.1157 9.46312C15.1157 5.60662 12.2635 2.41318 8.63735 2.41318C5.01118 2.41318 2.15897 5.60662 2.15897 9.46312Z" fill="#12EBF9" stroke="white"/>
</svg>
