<svg width="16" height="26" viewBox="0 0 16 26" fill="none" xmlns="http://www.w3.org/2000/svg">
<path fill-rule="evenodd" clip-rule="evenodd" d="M0 12.905C0 13.4018 0.2496 13.8058 0.5584 13.8058H2.072C2.20218 16.032 2.80973 18.1152 3.78992 19.6964C4.77011 21.2776 6.06153 22.2576 7.4416 22.4676V24.9092C7.4416 25.1481 7.50043 25.3772 7.60515 25.5462C7.70987 25.7151 7.8519 25.81 8 25.81C8.1481 25.81 8.29013 25.7151 8.39485 25.5462C8.49957 25.3772 8.5584 25.1481 8.5584 24.9092V22.4676C9.93847 22.2576 11.2299 21.2776 12.2101 19.6964C13.1903 18.1152 13.7978 16.032 13.928 13.8058H15.4416C15.5897 13.8058 15.7317 13.7109 15.8364 13.5419C15.9412 13.373 16 13.1439 16 12.905C16 12.6661 15.9412 12.437 15.8364 12.2681C15.7317 12.0991 15.5897 12.0042 15.4416 12.0042H13.928C13.7978 9.778 13.1903 7.69478 12.2101 6.11361C11.2299 4.53244 9.93847 3.5524 8.5584 3.3424V0.900769C8.5584 0.66187 8.49957 0.432756 8.39485 0.263829C8.29013 0.0949021 8.1481 0 8 0C7.8519 0 7.70987 0.0949021 7.60515 0.263829C7.50043 0.432756 7.4416 0.66187 7.4416 0.900769V3.3424C6.06153 3.5524 4.77011 4.53244 3.78992 6.11361C2.80973 7.69478 2.20218 9.778 2.072 12.0042H0.5584C0.410303 12.0042 0.268272 12.0991 0.163552 12.2681C0.0588312 12.437 0 12.6661 0 12.905ZM5.2096 12.905C5.2096 11.7112 5.50359 10.5663 6.02689 9.72213C6.55019 8.87797 7.25994 8.40374 8 8.40374C8.74006 8.40374 9.44981 8.87797 9.97311 9.72213C10.4964 10.5663 10.7904 11.7112 10.7904 12.905C10.7904 14.0988 10.4964 15.2437 9.97311 16.0879C9.44981 16.932 8.74006 17.4063 8 17.4063C7.25994 17.4063 6.55019 16.932 6.02689 16.0879C5.50359 15.2437 5.2096 14.0988 5.2096 12.905Z" fill="#2AC127"/>
</svg>
