<svg xmlns="http://www.w3.org/2000/svg" version="1.1" xmlns:xlink="http://www.w3.org/1999/xlink" xmlns:svgjs="http://svgjs.dev/svgjs" width="1000" height="1000" viewBox="0 0 1000 1000"><rect width="1000" height="1000" fill="#102e44"></rect><g transform="matrix(0.7,0,0,0.7,149.57575757575756,401.66617389222296)"><svg viewBox="0 0 396 111" data-background-color="#102e44" preserveAspectRatio="xMidYMid meet" height="280" width="1000" xmlns="http://www.w3.org/2000/svg" xmlns:xlink="http://www.w3.org/1999/xlink"><g id="tight-bounds" transform="matrix(1,0,0,1,0.2400000000000091,0.18905458144516274)"><svg viewBox="0 0 395.52 110.62189083710967" height="110.62189083710967" width="395.52"><g><svg viewBox="0 0 397.4976 111.17500029129522" height="110.62189083710967" width="395.52"><g><rect width="397.4976" height="3.405143422943232" x="0" y="61.096892850176" fill="#ffffff" opacity="1" stroke-width="0" stroke="transparent" fill-opacity="1" class="rect-o-0" data-fill-palette-color="secondary" rx="1%" id="o-0" data-palette-color="#ffffff"></rect></g><g transform="matrix(1,0,0,1,0.9887999999999693,73.41602429129523)"><svg viewBox="0 0 395.52000000000004 37.758976" height="37.758976" width="395.52000000000004"><g id="textblocktransform"><svg viewBox="0 0 395.52000000000004 37.758976" height="37.758976" width="395.52000000000004" id="textblock"><g><svg viewBox="0 0 395.52000000000004 37.758976" height="37.758976" width="395.52000000000004"><g transform="matrix(1,0,0,1,0,0)"><svg width="395.52000000000004" viewBox="0 -35.79999923706055 374.9800109863281 35.79999923706055" height="37.758976" data-palette-color="#ffffff"><path d="M21.65-2.15L35-2.15 35 0 0 0 0-2.15 13.3-2.15 0.15-34.95 6.75-34.95 17.5-8.85 28.25-34.95 34.85-34.95 21.65-2.15ZM67.8-2.15L72.65-2.15 72.65 0 61.85 0 53.5-11.75 45.75-11.75 45.75 0 35 0 35-2.15 39.85-2.15 39.85-34.95 52.85-34.95Q60.85-34.95 64.3-32.25 67.75-29.55 67.75-23.6L67.75-23.6Q67.75-14.95 60.2-12.7L60.2-12.7 67.8-2.15ZM53.1-17.1Q58.1-17.1 59.9-18.65 61.7-20.2 61.7-23.63 61.7-27.05 59.85-28.33 58-29.6 53.25-29.6L53.25-29.6 45.75-29.6 45.75-17.1 53.1-17.1ZM101.95-2.15L113.4-2.15 113.4 0 71.4 0 71.4-2.15 82.85-2.15Q78.75-4.5 76.37-8.6 74-12.7 74-17.75L74-17.75Q74-25.45 79.3-30.63 84.6-35.8 92.4-35.8 100.2-35.8 105.5-30.63 110.8-25.45 110.8-17.75L110.8-17.75Q110.8-12.75 108.42-8.6 106.05-4.45 101.95-2.15L101.95-2.15ZM101.17-26.7Q97.6-30.4 92.4-30.4 87.2-30.4 83.62-26.7 80.05-23 80.05-17.73 80.05-12.45 83.62-8.75 87.2-5.05 92.4-5.05 97.6-5.05 101.17-8.75 104.75-12.45 104.75-17.73 104.75-23 101.17-26.7ZM143.94-2.15L155.39-2.15 155.39 0 113.39 0 113.39-2.15 124.84-2.15Q120.74-4.5 118.37-8.6 115.99-12.7 115.99-17.75L115.99-17.75Q115.99-25.45 121.29-30.63 126.59-35.8 134.39-35.8 142.19-35.8 147.49-30.63 152.79-25.45 152.79-17.75L152.79-17.75Q152.79-12.75 150.42-8.6 148.04-4.45 143.94-2.15L143.94-2.15ZM143.17-26.7Q139.59-30.4 134.39-30.4 129.19-30.4 125.62-26.7 122.04-23 122.04-17.73 122.04-12.45 125.62-8.75 129.19-5.05 134.39-5.05 139.59-5.05 143.17-8.75 146.74-12.45 146.74-17.73 146.74-23 143.17-26.7ZM199.69-2.15L204.54-2.15 204.54 0 193.79 0 193.79-27.3 181.59-3.05 178.29-3.05 166.14-27.3 166.14 0 155.39 0 155.39-2.15 160.24-2.15 160.24-34.95 169.44-34.95 179.99-13 190.54-34.95 199.69-34.95 199.69-2.15ZM226.19-2.15L239.54-2.15 239.54 0 204.54 0 204.54-2.15 217.84-2.15 204.69-34.95 211.29-34.95 222.04-8.85 232.79-34.95 239.39-34.95 226.19-2.15ZM239.54-2.15L244.39-2.15 244.39-34.95 268.94-34.95 268.94-29.4 250.29-29.4 250.29-20.15 267.04-20.15 267.04-14.9 250.29-14.9 250.29-5.55 269.54-5.55 269.54-2.15 274.39-2.15 274.39 0 239.54 0 239.54-2.15ZM305.03-2.15L309.88-2.15 309.88 0 299.08 0 290.73-11.75 282.98-11.75 282.98 0 272.23 0 272.23-2.15 277.08-2.15 277.08-34.95 290.08-34.95Q298.08-34.95 301.53-32.25 304.98-29.55 304.98-23.6L304.98-23.6Q304.98-14.95 297.43-12.7L297.43-12.7 305.03-2.15ZM290.33-17.1Q295.33-17.1 297.13-18.65 298.93-20.2 298.93-23.63 298.93-27.05 297.08-28.33 295.23-29.6 290.48-29.6L290.48-29.6 282.98-29.6 282.98-17.1 290.33-17.1ZM333.88-2.15L340.13-2.15 340.13 0 308.63 0 308.63-2.15 315.03-2.15Q312.63-3.4 310.63-5.25L310.63-5.25 314.33-9.7Q319.63-5.1 325.33-5.1L325.33-5.1Q328.18-5.1 329.86-6.33 331.53-7.55 331.53-9.58 331.53-11.6 329.95-12.73 328.38-13.85 324.53-14.78 320.68-15.7 318.68-16.48 316.68-17.25 315.13-18.5L315.13-18.5Q312.03-20.85 312.03-25.7 312.03-30.55 315.56-33.18 319.08-35.8 324.28-35.8L324.28-35.8Q327.63-35.8 330.93-34.7 334.23-33.6 336.63-31.6L336.63-31.6 333.48-27.15Q331.93-28.55 329.28-29.45 326.63-30.35 324.06-30.35 321.48-30.35 319.83-29.3 318.18-28.25 318.18-26.13 318.18-24 319.83-22.88 321.48-21.75 326.86-20.45 332.23-19.15 334.95-16.8 337.68-14.45 337.68-10.2L337.68-10.2Q337.68-5.05 333.88-2.15L333.88-2.15ZM340.13-2.15L344.98-2.15 344.98-34.95 369.53-34.95 369.53-29.4 350.88-29.4 350.88-20.15 367.63-20.15 367.63-14.9 350.88-14.9 350.88-5.55 370.13-5.55 370.13-2.15 374.98-2.15 374.98 0 340.13 0 340.13-2.15Z" opacity="1" transform="matrix(1,0,0,1,0,0)" fill="#ffffff" class="wordmark-text-0" data-fill-palette-color="primary" id="text-0"></path></svg></g></svg></g></svg></g></svg></g><g transform="matrix(1,0,0,1,122.89024504030306,0)"><svg viewBox="0 0 151.71710991939386 52.182904832" height="52.182904832" width="151.71710991939386"><g><svg version="1.0" xmlns="http://www.w3.org/2000/svg" xmlns:xlink="http://www.w3.org/1999/xlink" x="8" y="0" viewBox="0 0.00023700809106230736 100.00000762939453 38.449764251708984" enable-background="new 0 0 100 38.449" xml:space="preserve" width="135.71710991939386" height="52.182904832" class="icon-icon-0" data-fill-palette-color="accent" id="icon-0"><path d="M99.929 15.958c-0.053-0.283-0.157-0.619-0.364-1.056L80.803 0.005h-37.75c-0.874-0.054-1.348 0.359-1.763 0.841L28.672 13.487 1.078 18.071C0.694 18.406 0.309 18.735 0 19.599l0.059 9.493c0.598 1.521 1.006 1.324 1.459 1.536h5.312c0-12.905 19.225-12.856 19.225 0h49.021c0-12.933 19.08-12.906 19.08 0h4.354c0.731-0.067 1.142-0.713 1.49-1.47L99.929 15.958zM59.408 15.346H33.254c-0.995-0.393-1.13-0.988-0.716-1.713l9.403-9.278c0.212-0.18 0.379-0.428 0.747-0.374h16.72V15.346zM86.488 15.348H62.516V3.983h14.066c0.368-0.055 0.535 0.193 0.747 0.374l8.058 8.115C86.13 13.591 87.623 15.122 86.488 15.348z" fill="#b2fcfb" data-fill-palette-color="accent"></path><path d="M16.396 22.843c-4.31 0-7.804 3.493-7.804 7.803s3.494 7.804 7.804 7.804 7.804-3.494 7.804-7.804S20.705 22.843 16.396 22.843zM16.396 33.921c-1.819 0-3.294-1.475-3.294-3.293 0-1.819 1.475-3.294 3.294-3.294 1.818 0 3.293 1.475 3.293 3.294C19.688 32.446 18.214 33.921 16.396 33.921z" fill="#b2fcfb" data-fill-palette-color="accent"></path><path d="M84.615 22.839c-4.31 0-7.804 3.494-7.804 7.804s3.494 7.804 7.804 7.804 7.803-3.494 7.803-7.804S88.925 22.839 84.615 22.839zM84.615 33.921c-1.819 0-3.294-1.475-3.294-3.293 0-1.819 1.475-3.294 3.294-3.294 1.818 0 3.293 1.475 3.293 3.294C87.908 32.446 86.434 33.921 84.615 33.921z" fill="#b2fcfb" data-fill-palette-color="accent"></path></svg></g></svg></g><g><rect width="46.35712504030306" height="3.405143422943232" y="47.777761409056765" x="274.6073549596969" fill="#ffffff" data-fill-palette-color="secondary"></rect><rect width="46.35712504030306" height="3.405143422943232" y="47.777761409056765" x="76.53312" fill="#ffffff" data-fill-palette-color="secondary"></rect></g></svg></g><defs></defs></svg><rect width="395.52" height="110.62189083710967" fill="none" stroke="none" visibility="hidden"></rect></g></svg></g></svg>